<?xml version="1.0" encoding="utf-8"?>
<!DOCTYPE svg PUBLIC "-//W3C//DTD SVG 1.1//EN" "http://www.w3.org/Graphics/SVG/1.1/DTD/svg11.dtd">
<svg version="1.1" id="Layer_1" xmlns="http://www.w3.org/2000/svg" xmlns:xlink="http://www.w3.org/1999/xlink" x="0px" y="0px"
	 width="842px" height="842px" viewBox="0 0 842 842" enable-background="new 0 0 842 842" xml:space="preserve">
<linearGradient id="SVGID_1_" gradientUnits="userSpaceOnUse" x1="420.9998" y1="0" x2="420.9997" y2="842.0005">
	<stop  offset="0.1872" style="stop-color:#7D7D7D"/>
	<stop  offset="0.8891" style="stop-color:#000000"/>
</linearGradient>
<path fill="url(#SVGID_1_)" d="M842,725.276C842,789.741,789.741,842,725.277,842H116.724C52.259,842,0,789.741,0,725.276V116.724
	C0,52.259,52.259,0,116.724,0h608.553C789.741,0,842,52.259,842,116.724V725.276z"/>
<path fill="#FFFFFF" d="M641,360.854h-27.937c2.296-11.324,3.512-23.009,3.512-34.963c0-102.317-88.011-185.262-196.575-185.262
	c-108.566,0-196.576,82.944-196.576,185.262c0,1.593,0.021,3.181,0.063,4.764c-61.108,16.193-106.151,71.874-106.151,138.085
	c0,74.11,56.432,135.038,128.664,142.151v0.699h38.463c2.93,7.937,4.532,16.458,4.532,25.337c0,30.128-18.343,56.195-45.048,68.832
	c15.765,10.1,34.492,15.953,54.586,15.953c56.074,0,101.532-45.588,101.532-101.823c0-2.795-0.117-5.562-0.337-8.299H641
	c65.607,0,118.794-56.129,118.794-125.368C759.794,416.983,706.608,360.854,641,360.854z"/>
</svg>
